<svg xmlns="http://www.w3.org/2000/svg"  viewBox="0 0 48 48" width="48px" height="48px" baseProfile="basic"><path d="M41,36H7v6c0,1.657,1.343,3,3,3h28c1.657,0,3-1.343,3-3V36z"/><path fill="#fff" d="M38,42H10c-1.105,0-2-0.895-2-2V4h21l11,11v25C40,41.105,39.105,42,38,42z"/><path d="M38,43H10c-1.654,0-3-1.346-3-3V4c0-0.552,0.447-1,1-1h21c0.266,0,0.52,0.105,0.707,0.293l11,11	C40.895,14.48,41,14.735,41,15v25C41,41.654,39.654,43,38,43z M9,5v35c0,0.551,0.448,1,1,1h28c0.552,0,1-0.449,1-1V15.414L28.586,5	H9z"/><path d="M40,16H29c-0.553,0-1-0.448-1-1V4c0-0.552,0.447-1,1-1s1,0.448,1,1v10h10c0.553,0,1,0.448,1,1S40.553,16,40,16z"/><path d="M33,24H16c-0.553,0-1,0.448-1,1s0.447,1,1,1h17c0.553,0,1-0.448,1-1S33.553,24,33,24z"/><path d="M27,29H16c-0.553,0-1,0.448-1,1s0.447,1,1,1h11c0.553,0,1-0.448,1-1S27.553,29,27,29z"/></svg>